<svg width="20" height="20" viewBox="0 0 20 20" fill="none" xmlns="http://www.w3.org/2000/svg">
<path d="M0.119048 5.80781C0.875448 9.2524 2.60534 12.4072 5.10295 14.897C7.59276 17.3946 10.7476 19.1245 14.1921 19.8809C15.2738 20.0997 16.3982 19.909 17.3472 19.3457C18.2961 18.7824 19.0021 17.8867 19.3279 16.8323L19.58 16.0444C19.7303 15.5748 19.5158 15.0657 19.0748 14.8452L15.5057 13.0607C15.1207 12.8682 14.6557 12.9437 14.3513 13.248L12.4759 15.1235C10.7877 14.3903 9.2476 13.3551 7.93125 12.0686C6.64483 10.7523 5.60959 9.2121 4.87645 7.52391L6.75189 5.64846C7.05625 5.3441 7.13171 4.87913 6.93921 4.49414L5.15471 0.92513C4.9342 0.484115 4.42515 0.269648 3.95553 0.419911L3.16765 0.67201C2.11329 0.99791 1.21758 1.70382 0.654267 2.6528C0.0909574 3.60177 -0.0997825 4.72616 0.119048 5.80781Z" fill="white"/>
</svg>
