<svg width="14" height="16" viewBox="0 0 14 16" fill="none" xmlns="http://www.w3.org/2000/svg">
<path d="M6.99998 6.83333C7.61806 6.83333 8.22223 6.65006 8.73615 6.30667C9.25006 5.9633 9.65056 5.47524 9.88706 4.90422C10.1236 4.3332 10.1855 3.70487 10.0649 3.09867C9.9444 2.49248 9.64673 1.93567 9.20973 1.49862C8.77265 1.06158 8.21581 0.763958 7.60965 0.643383C7.00348 0.5228 6.37515 0.584683 5.80406 0.821208C5.23307 1.05773 4.74501 1.45827 4.40164 1.97217C4.05825 2.48608 3.87498 3.09027 3.87498 3.70833C3.87593 4.53684 4.20547 5.33115 4.79132 5.917C5.37715 6.50284 6.17148 6.83238 6.99998 6.83333ZM13.4225 11.6543C11.7179 9.95342 9.40806 8.99808 6.99998 8.99808C4.59187 8.99808 2.2821 9.95342 0.57748 11.6543C0.421145 11.8106 0.333313 12.0226 0.333313 12.2437V15C0.333313 15.5523 0.781028 16 1.33331 16H12.6666C13.2189 16 13.6666 15.5523 13.6666 15V12.2437C13.6666 12.0226 13.5788 11.8106 13.4225 11.6543Z" fill="white"/>
</svg>
